<svg width="24" height="24" viewBox="0 0 24 24" fill="none" xmlns="http://www.w3.org/2000/svg">
<path d="M6.5 20H5C3.89543 20 3 19.1046 3 18V4C3 2.89543 3.89543 2 5 2H12H19C20.1046 2 21 2.89543 21 4V18C21 19.1046 20.1046 20 19 20H17.5M12 19C13.6569 19 15 17.6569 15 16C15 14.3431 13.6569 13 12 13C10.3431 13 9 14.3431 9 16C9 17.6569 10.3431 19 12 19ZM12 19L12.0214 18.9998L8.82867 22.1926L6.00024 19.3641L9.01965 16.3447M12 19L15.1928 22.1926L18.0212 19.3641L15.0018 16.3447" stroke="#347503" stroke-linecap="round" stroke-linejoin="round"/>
<path fill-rule="evenodd" clip-rule="evenodd" d="M3 4C3 2.89543 3.89543 2 5 2H19C20.1046 2 21 2.89543 21 4V13V17.5L20.5 19L19.5 20H18L17.5 18.5L15.5 16.5L15 15.5L13.5 13H10.5L8.5 16.5L5.5 19.5H4L3 18V13V4ZM9.5 5C9.22386 5 9 5.22386 9 5.5C9 5.77614 9.22386 6 9.5 6H15.5C15.7761 6 16 5.77614 16 5.5C16 5.22386 15.7761 5 15.5 5H9.5ZM7.5 8.5C7.22386 8.5 7 8.72386 7 9C7 9.27614 7.22386 9.5 7.5 9.5H17.5C17.7761 9.5 18 9.27614 18 9C18 8.72386 17.7761 8.5 17.5 8.5H7.5Z" fill="#347503"/>
</svg>
